<svg width="215" height="199" viewBox="0 0 215 199" fill="none" xmlns="http://www.w3.org/2000/svg"><g clip-path="url(#a)"><path d="M146.2 107.818c.905-2.72 1.512-3.128 4.387-3.179 11.738-.21 21.357 4.135 28.822 13.249a2.69 2.69 0 0 0 2.075.813 11.523 11.523 0 0 0 9.793-14.192c-.615-2.669-.783-5.246.421-7.789 1.814-3.894 5.591-6.024 10.104-5.683 4.269.324 7.443 3.023 8.82 7.49 4.866 15.842-4.379 33.389-20.465 38.816-1.12.374-2.261.682-3.448 1.035v3.116c5.498 1.456 10.992 2.989 16.524 4.365 6.26 1.558 10.584 5.099 11.662 11.649.345 2.105-.03 4.459-.548 6.585-.711 2.947-2.105 3.519-4.988 2.694-1.369-1.292-1.588-2.728-.986-4.547 1.474-4.462-.698-8.42-5.22-9.788a98.287 98.287 0 0 0-3.823-1.073c-4.407-1.171-8.841-2.333-13.303-3.516-.379 1.432-.695 2.632-1.011 3.836l-3.368 7.578 17.994 11.013c1.04.695 2.075 1.398 3.128 2.075 6.875 4.455 8.896 12.761 4.707 19.366-4.134 6.522-12.428 8.34-19.366 4.084-10.593-6.517-21.109-13.16-31.697-19.69a6.23 6.23 0 0 0-3.099-.897 9844.125 9844.125 0 0 0-59.032 0 6.583 6.583 0 0 0-3.284.964c-10.588 6.559-21.05 13.283-31.638 19.813a13.792 13.792 0 0 1-16.845-1.644 13.784 13.784 0 0 1-3.363-5c-2.105-5.384-.842-10.714 3.751-15.488-1.86-.602-3.823-1.007-5.57-1.849-5.187-2.492-7.948-7.628-7.532-13.606a13.416 13.416 0 0 1 9.393-11.75c6.627-1.958 13.316-3.714 20.014-5.419 1.516-.383 1.928-.989 1.983-2.526.093-2.5.627-4.98.842-7.485a3.17 3.17 0 0 0-.665-2.164c-1.743-1.915-3.688-3.642-5.435-5.553-.888-.972-1.684-1.103-2.91-.703-10.339 3.406-20.7 6.736-31.052 10.104-7.262 2.366-13.194-1.069-14.777-8.546a16091.758 16091.758 0 0 0-6.433-30.11A10.948 10.948 0 0 0 0 92.447v-4.21c1.54-3.406 4.26-4.736 7.91-5.157 6.593-.762 13.14-1.95 19.716-2.888 1.297-.181 1.827-.741 2.185-1.991 4.926-17.156 24.97-24.49 39.89-14.685.789.48 1.723.662 2.635.514 2.918-.581 5.683-.383 8.37.939 4.946 2.437 9.914 4.833 14.857 7.283 6.971 3.448 7.464 10.9 1.031 15.337l-1.027.74 6.247 5.865 31.575-20.561c-2.475-1.554-5.317-2.77-7.422-4.762-5.241-4.963-4.265-11.291 1.983-14.907 4.168-2.413 8.378-4.766 12.491-7.275a4.832 4.832 0 0 0 1.962-2.425 24.202 24.202 0 0 1 10.9-13.851 4.754 4.754 0 0 0 1.793-2.105c1.057-2.555 2.526-5.056 1.516-8.1-.266-.8.214-1.924.555-2.825a758.422 758.422 0 0 1 4.985-12.887c1.263-3.195 3.136-4.467 6.568-4.47h36.761c5.292 0 8.054 4.05 6.113 8.954-2.336 5.894-4.723 11.788-6.782 18.103 1.461-.935 2.879-1.945 4.399-2.77.939-.51 2.185-1.209 3.031-.952 1.011.3 2.059 1.385 2.526 2.396.67 1.46-.269 2.686-1.528 3.51-4.555 2.99-9.081 6.03-13.724 8.88-1.634 1.002-2.168 2.105-2.156 4.008.055 10.104-.206 20.17 0 30.248.139 7.477-5.161 12.024-11.864 11.822-10.356-.311-20.725-.08-31.09-.084-7.553 0-9.747-1.36-12.929-8.13l-35.528 23.13c1.823 1.798 3.502 3.549 5.313 5.157.421.379 1.292.35 1.957.354 6.736.021 13.447 0 20.17 0 2.825 0 3.457.467 4.396 3.183-.981 2.707-1.55 3.115-4.446 3.119-6.437 0-12.879-.046-19.316.026-2.976.029-5.957.307-7.797-2.821-.842.547-1.465.964-2.105 1.389-10.87 7.267-21.559 14.824-32.711 21.627-3.499 2.13-4 4.564-4.11 7.822 0 .632-.029 1.263 0 1.89.325 5.204 1.42 10.172 4.346 14.706 2.69-1.684 5.19-3.334 7.796-4.816 7.654-4.341 17.443-.628 19.855 7.784.737 2.568.227 5.473.286 8.251l-.892 2.021h49.762l-1.049-2.871c-1.124-6.34.741-11.514 6.219-15.063 4.268-2.77 8.841-2.665 13.472-.788l8.92 5.6c4.791-7.271 5.823-18.234 2.484-26.683-2.723-6.888-7.3-12.146-14.183-15.207-4.269-2.378-8.921-2.921-13.708-2.875-2.879.025-3.498-.451-4.408-3.128zM10.845 94.253c2.366.152 2.892-1.322 1.882-5.473l-1.385.324-5.12.695 1.133 4.72 3.49-.266zm84.57 3.3c-1.835-1.755-3.667-3.514-5.637-5.405l-3.713 2.644c-1.238.787-2.463 1.591-3.718 2.35-7.338 4.424-16.654.15-17.656-8.337-.628-5.325-.59-10.735-.842-16.103.593-1.38 1.187-2.761 1.827-4.26-5.052-2.905-10.29-3.894-15.889-2.16-7.102 1.474-13.227 8.184-14.44 15.977-.345 2.19-1.347 3.444-3.595 3.625-.556.042-1.103.172-1.655.26l-10.592 1.643c-.733 11.569-.733 11.569-10.715 13.164.023.535.078 1.068.165 1.596a5479.294 5479.294 0 0 0 4.34 20.065c1.01 4.605 2.85 5.62 7.36 4.155 10.815-3.52 21.651-6.98 32.437-10.588 2.274-.762 4.067-.686 5.608 1.263.25.257.524.49.817.699 7.89-5.271 15.75-10.483 23.576-15.771 1.886-1.263 3.553-1.532 5.233.198.863 2.56.589 3.507-1.592 4.972a8589.983 8589.983 0 0 1-20.75 13.893c-.615.421-1.213.842-2.135 1.503a32.951 32.951 0 0 1 2.728 2.421c.766.842 1.355.867 2.303.231a5226.464 5226.464 0 0 1 28.207-18.945l4.26-2.795-5.932-6.294zm35.272-32.837c1.183.678 2.29 1.625 3.561 1.975 2.404.66 4.892.21 6.635-1.516.728-.724.379-2.526.522-3.852v-7.856l-10.15 5.822c-3.01 1.756-3.128 2.888-.568 5.423v.004zm55.1 66.387c.564.152 1.2.56 1.684.421 13.03-3.751 21.008-18.275 17.059-31.183-.333-1.086-1.604-1.882-2.438-2.808-2.947-.905-5.422 1.128-4.959 4.121.097.619.29 1.221.421 1.836a17.981 17.981 0 0 1-12.314 20.865c-.522.164-1.032.353-1.533.522a800.203 800.203 0 0 1 2.08 6.226zM71.894 90.333c2.017 2.493 4.669 3.04 7.342 1.297 4.779-3.115 9.502-6.314 14.213-9.535 1.848-1.263 1.684-2.947-.34-4.012-.607-.32-1.264-.543-1.904-.813-4.42-2.21-8.807-4.496-13.27-6.605-4.142-1.958-8.112.75-7.906 5.325.164 3.625.354 7.258.703 10.87.114 1.183.758 2.316 1.162 3.474zM183.556 27.02l-.034-.03 12.243 4.463 10.061-25.07h-37.658c-1.722 4.458-3.456 8.929-5.279 13.64l19.315 6.5 1.352.497zM37.09 163.444c2.063 3.272 4.854 4.408 8.567 3.474 3.448-.872 6.96-1.566 10.29-2.77 3.54-1.263 6.895-3.057 10.525-4.707l-1.18-1.933-4.04-10.323c-6.417 1.731-13.03 3.44-19.603 5.305-5.001 1.419-6.992 6.357-4.559 10.954zm119.269-6.698c-4.13 3.267-4.079 9.224.375 12.054 11.712 7.443 23.513 14.735 35.33 22.018 2.421 1.49 5.052 1.461 7.515-.126 4.879-3.162 5.014-9.477.206-12.685-2.846-1.903-5.797-3.646-8.702-5.473a16455.903 16455.903 0 0 0-25.626-15.964c-3.406-2.101-6.138-2.021-9.098.176zm-63.845 2.358c-2.058-3.688-6.133-4.938-9.85-2.888-2.144 1.179-4.177 2.555-6.249 3.86L48.37 177.758c-4.299 2.72-5.124 7.482-2.06 11.313 2.645 3.077 6.345 3.671 9.928 1.473 4.4-2.703 8.748-5.473 13.114-8.235 6.846-4.311 13.708-8.596 20.524-12.958 3.949-2.522 4.883-6.365 2.64-10.247zm66.796-84.305v2.837h6.635c-.05-.943-.097-1.684-.139-2.45.034-1.595.047-3.195.101-4.79.072-2.106 1.322-3.445 3.124-3.436 1.802.008 3.073 1.39 3.17 3.452.072 1.596.063 3.195.093 4.795v2.501h6.567c-.067-.939-.126-1.739-.185-2.526.068-1.814.055-3.633.228-5.43.16-1.714 1.309-2.632 2.947-2.678 1.637-.047 2.799.842 3.123 2.526.133.895.218 1.797.253 2.702v5.376c3.974.506 5.709-.98 5.763-4.879V36.413l-3.953-1.264-24.439-8.588c-.736 1.848-1.157 3.52-2.021 4.917-.917 1.482-2.016 3.124-3.456 3.974-6.235 3.68-9.376 8.96-9.329 16.196.038 6.997 0 13.994.025 20.987.06.889.182 1.772.366 2.644.8 2.189 2.48 2.686 4.678 2.48V74.81c.021-1.524 0-3.048.075-4.572.076-1.924 1.318-3.254 3.032-3.321 1.713-.068 3.161 1.322 3.254 3.317.08 1.516.067 3.04.088 4.564z" fill="#040302"/><path d="M167.081 150.107c-4.631-1.877-9.187-1.983-13.472.788-5.473 3.549-7.343 8.723-6.218 15.067-15.914 1.743-31.883.459-47.822.842-.059-2.762.451-5.683-.286-8.252-2.412-8.42-12.209-12.124-19.854-7.784-2.606 1.482-5.107 3.149-7.797 4.816-2.926-4.534-4.02-9.502-4.345-14.705a17.679 17.679 0 0 1 0-1.89c.11-3.259.61-5.692 4.109-7.823 11.152-6.803 21.841-14.36 32.712-21.626.635-.421 1.263-.842 2.105-1.39 1.839 3.128 4.82 2.851 7.797 2.821 6.437-.071 12.878-.021 19.315-.025 2.896 0 3.465-.421 4.446-3.12h8.42c.909 2.678 1.528 3.154 4.395 3.124 4.787-.046 9.439.497 13.708 2.876.198.421.366.871.593 1.263 1.326 2.437 2.897 4.774 3.949 7.325 2.48 5.999 2.821 12.335 1.6 18.621-.598 3.132-2.202 6.058-3.355 9.072z" fill="#FEA900"/><path d="M199.603 170.286l-17.994-11.014c1.175-2.631 2.274-5.102 3.368-7.578 4.366 1.124 8.736 2.236 13.098 3.368 3.145.842 6.007 2.042 7.944 4.93 1.726 2.577 1.524 5.419 1.6 8.26-2.366 1.899-5.12 2.286-8.016 2.034z" fill="#FD8400"/><path d="M207.626 168.269c-.076-2.842.126-5.683-1.6-8.26-1.937-2.888-4.799-4.105-7.944-4.93-4.362-1.145-8.732-2.256-13.098-3.368.316-1.204.632-2.404 1.011-3.835 4.479 1.183 8.895 2.345 13.303 3.515 1.263.341 2.556.686 3.823 1.074 4.522 1.376 6.694 5.325 5.22 9.788-.602 1.819-.383 3.254.986 4.547l-1.701 1.469z" fill="#F96B00"/><path d="M63.84 72.702c.26 5.368.222 10.778.841 16.104 1.002 8.487 10.319 12.76 17.657 8.335 1.263-.758 2.48-1.562 3.717-2.349.67.77 1.343 1.537 2 2.316 1.04 1.229 2.067 2.47 3.103 3.704l-2.859 1.743c-1.684-1.73-3.347-1.477-5.233-.197-7.81 5.287-15.67 10.499-23.576 15.77a6.024 6.024 0 0 1-.817-.699c-1.54-1.936-3.334-2.012-5.607-1.263-10.786 3.608-21.623 7.069-32.417 10.588-4.509 1.465-6.349.451-7.36-4.155a3315.75 3315.75 0 0 1-4.34-20.065 13.472 13.472 0 0 1-.164-1.595c9.986-1.583 9.986-1.583 10.71-13.152l10.593-1.642c.551-.089 1.098-.22 1.654-.261 2.248-.181 3.25-1.436 3.596-3.625 1.212-7.793 7.338-14.503 14.44-15.977.36.207.746.362 1.15.459 5.022.434 9.13 2.846 12.911 5.961zM39.78 86.128a4.681 4.681 0 1 0 4.685 4.631 4.728 4.728 0 0 0-4.686-4.631z" fill="#FDA800"/><path d="M185.241 72.269a25.231 25.231 0 0 0-.253-2.703c-.324-1.684-1.469-2.556-3.124-2.526-1.654.03-2.799.964-2.947 2.677-.172 1.798-.16 3.617-.227 5.431l-6.382.038c-.03-1.6-.021-3.2-.093-4.795-.097-2.063-1.398-3.444-3.17-3.452-1.773-.009-3.052 1.347-3.124 3.435-.055 1.596-.067 3.196-.101 4.791l-6.496-.387c-.021-1.524 0-3.048-.076-4.572-.092-1.996-1.49-3.39-3.254-3.318-1.764.072-2.947 1.398-3.031 3.322-.059 1.524-.055 3.048-.076 4.572l-4.694.493a18.844 18.844 0 0 1-.366-2.644c-.034-6.993 0-13.99-.026-20.987-.046-7.237 3.095-12.516 9.33-16.196 1.439-.842 2.526-2.492 3.456-3.974.863-1.398 1.284-3.07 2.021-4.917l24.439 8.588c-.021.905-.059 1.814-.063 2.724 0 10.062.067 20.128-.08 30.19-.017 1.406-1.082 2.808-1.663 4.21z" fill="#FDC4B1"/><path d="M46.309 189.071c-3.073-3.823-2.248-8.593 2.05-11.321a5792.896 5792.896 0 0 1 28.047-17.682c2.071-1.305 4.105-2.682 6.248-3.861 3.717-2.05 7.792-.799 9.851 2.889a12.631 12.631 0 0 1-5.41 6.946 27691.767 27691.767 0 0 0-32.526 20.549 14.571 14.571 0 0 1-8.26 2.48z" fill="#FDA800"/><path d="M199.578 190.713c-2.48 1.587-5.094 1.616-7.515.126-11.818-7.275-23.618-14.575-35.33-22.018-4.455-2.83-4.505-8.787-.375-12.054 2.922 1.592 5.919 3.057 8.748 4.796 9.186 5.628 18.293 11.468 27.529 17.058 4.631 2.83 7.473 6.412 6.943 12.092z" fill="#FCA800"/><path d="M182.206 26.523l-19.315-6.5c1.823-4.711 3.557-9.182 5.279-13.64h26.754c-2.29 5.73-4.706 11.417-6.841 17.193-.842 2.303-2.105 3.486-4.547 3.397l.034.03-1.364-.48z" fill="#4592F0"/><path d="M167.083 150.107c1.154-3.014 2.758-5.94 3.368-9.06 1.221-6.285.88-12.63-1.6-18.62-1.052-2.552-2.623-4.888-3.949-7.326-.227-.421-.396-.842-.593-1.263 6.883 3.061 11.459 8.319 14.183 15.207 3.339 8.449 2.307 19.412-2.484 26.683l-8.925-5.621z" fill="#FC8400"/><path d="M37.09 163.444c-2.433-4.597-.421-9.535 4.564-10.946 6.571-1.865 13.185-3.574 19.601-5.304l4.042 10.323c-3.368.909-6.685 1.945-10.079 2.69-5.999 1.309-11.763 3.983-18.128 3.237z" fill="#FC8300"/><path d="M183.555 26.99c2.433.089 3.696-1.094 4.546-3.397 2.135-5.793 4.551-11.48 6.854-17.21h10.904l-10.095 25.07-12.209-4.463z" fill="#257CDC"/><path d="M71.892 90.334c-.42-1.158-1.048-2.29-1.162-3.474-.35-3.612-.539-7.245-.703-10.87-.206-4.576 3.764-7.283 7.907-5.325 4.462 2.105 8.84 4.395 13.27 6.605-.94.905-1.773 1.962-2.83 2.695a530.392 530.392 0 0 1-12.95 8.664c-1.086.707-2.349 1.145-3.532 1.705z" fill="#FC8300"/><path d="M199.579 190.713c.531-5.659-2.311-9.262-6.942-12.07-9.237-5.612-18.343-11.452-27.529-17.101-2.829-1.739-5.827-3.204-8.749-4.796 2.947-2.197 5.692-2.277 9.098-.164a7874.822 7874.822 0 0 1 25.626 15.964c2.905 1.815 5.856 3.558 8.702 5.473 4.821 3.196 4.674 9.511-.206 12.694zM46.309 189.071c2.94.028 5.819-.833 8.26-2.472a7360.641 7360.641 0 0 1 32.526-20.549 12.628 12.628 0 0 0 5.41-6.946c2.244 3.882 1.31 7.725-2.631 10.247-6.808 4.362-13.674 8.647-20.516 12.942-4.365 2.753-8.714 5.531-13.114 8.234-3.583 2.215-7.283 1.621-9.935-1.456z" fill="#FA8300"/><path d="M88.31 102.555l2.858-1.743h.421l5.473 5.781a29413.633 29413.633 0 0 0-28.207 18.945c-.947.635-1.537.614-2.303-.232a33.32 33.32 0 0 0-2.728-2.421c.922-.648 1.52-1.09 2.135-1.503 6.918-4.628 13.835-9.259 20.75-13.893 2.19-1.427 2.464-2.374 1.6-4.934z" fill="#F95729"/><path d="M185.786 131.103c-.674-2.042-1.352-4.079-2.063-6.226.501-.169 1.01-.358 1.532-.522a17.984 17.984 0 0 0 12.285-20.865c-.122-.615-.316-1.217-.421-1.836-.463-2.993 1.991-5.026 4.959-4.121.282 2.888 1.07 5.843.72 8.656a39.747 39.747 0 0 1-2.896 11.177 25.631 25.631 0 0 1-5.685 8.28 25.637 25.637 0 0 1-8.431 5.457z" fill="#FBA700"/><path d="M185.238 72.269c.581-1.402 1.646-2.8 1.684-4.21.148-10.062.076-20.128.08-30.19 0-.91.042-1.819.063-2.724l3.954 1.263V72.766c-.055 3.898-1.79 5.384-5.764 4.879l-.017-5.376z" fill="#F39F99"/><path d="M71.894 90.334c1.183-.56 2.447-.998 3.533-1.684a626.4 626.4 0 0 0 12.95-8.664c1.056-.733 1.89-1.79 2.829-2.695.635.27 1.296.493 1.903.813 2.012 1.078 2.189 2.745.34 4.012-4.71 3.22-9.434 6.42-14.212 9.535-2.674 1.722-5.326 1.175-7.343-1.317z" fill="#FB6C00"/><path d="M99.588 166.808c15.939-.387 31.907.897 47.821-.842l1.048 2.867H98.695l.893-2.025z" fill="#FD8400"/><path d="M37.09 163.444c6.365.729 12.129-1.928 18.128-3.245 3.393-.746 6.736-1.781 10.079-2.691l1.179 1.933c-3.634 1.65-6.989 3.431-10.525 4.707-3.33 1.204-6.842 1.898-10.29 2.77-3.717.934-6.508-.202-8.571-3.474z" fill="#FA6B00"/><path d="M185.789 131.103a25.603 25.603 0 0 0 14.125-13.737 39.747 39.747 0 0 0 2.896-11.177c.349-2.813-.421-5.768-.72-8.656.842.926 2.105 1.722 2.438 2.808 3.949 12.908-4.029 27.432-17.059 31.183-.48.139-1.116-.269-1.68-.421z" fill="#F88200"/><path d="M130.687 64.712c-2.559-2.526-2.441-3.676.569-5.406l10.15-5.84v7.836c-.892.366-1.882.593-2.665 1.124-2.45 1.675-5.056 2.64-8.054 2.286z" fill="#FBC2AF"/><path d="M63.839 72.702c-3.79-3.115-7.89-5.527-12.912-5.961a4.345 4.345 0 0 1-1.15-.459c5.6-1.734 10.816-.745 15.889 2.16-.64 1.499-1.234 2.88-1.827 4.26z" fill="#F88200"/><path d="M97.067 106.605l-5.473-5.78 3.818-3.271 5.894 6.256-4.24 2.795z" fill="#ED3411"/><path d="M95.416 97.554l-3.818 3.271h-.421c-1.036-1.234-2.063-2.475-3.103-3.705-.657-.779-1.33-1.545-2-2.315l3.713-2.644c1.962 1.877 3.794 3.637 5.63 5.393z" fill="#F88200"/><path d="M130.688 64.712c2.997.353 5.603-.61 8.053-2.27.783-.53 1.773-.757 2.665-1.123-.143 1.317.206 3.128-.522 3.852-1.743 1.726-4.231 2.176-6.635 1.515-1.271-.35-2.378-1.296-3.561-1.974z" fill="#EE9D96"/><path d="M10.845 94.253l-3.49.266-1.132-4.72 5.119-.711c-.163 1.72-.328 3.442-.497 5.165z" fill="#886262"/><path d="M159.309 74.799l6.496.387c.042.754.088 1.507.139 2.45h-6.635V74.8z" fill="#F39F99"/><path d="M172.293 75.207l6.382-.038.186 2.526h-6.568v-2.488z" fill="#E99993"/><path d="M148.191 75.275l4.678-.472v2.947c-2.194.21-3.873-.286-4.678-2.475z" fill="#FCA49E"/><path d="M10.844 94.253c.163-1.72.328-3.442.497-5.165l1.385-.325c1.01 4.168.484 5.642-1.882 5.49z" fill="#664545"/><path d="M39.779 86.128a4.682 4.682 0 1 1-4.838 4.698 4.718 4.718 0 0 1 4.838-4.698z" fill="#050505"/></g><defs><clipPath id="a"><path fill="#fff" d="M0 0h215v198.143H0z"/></clipPath></defs></svg>