<svg width="600" height="600" viewBox="0 0 600 600" fill="none" xmlns="http://www.w3.org/2000/svg"><g clip-path="url(#a)"><path d="M300 600c165.685 0 300-134.315 300-300S465.685 0 300 0 0 134.315 0 300s134.315 300 300 300z" fill="#FEBD40"/><path d="M409.614 108.896a32.532 32.532 0 0 0 2.393 3.161c8.079 8.458 16.147 16.955 24.315 25.282a15.355 15.355 0 0 0 4.827 3.291 3613.394 3613.394 0 0 0 40.889 17.034c2.384.998 3.531 2.144 3.301 4.877-.488 5.685 0 11.539-1.127 17.054a35.187 35.187 0 0 1-33.838 27.845c-4.837.13-9.684 0-15.129 0V268.325c0 1.496-.13 2.992-.2 4.468-2.084-1.107-4.188-2.174-6.253-3.311l-95.931-52.727a.278.278 0 0 0-.249-.289c.08-12.985.156-25.97.229-38.955.449.359 1.137.628 1.297 1.097 1.905 5.455 5.634 9.544 9.713 13.453 12.567 12.028 36.592 9.654 47.273-4.128 7.17-9.245 8.527-19.538 7.918-30.518a3.35 3.35 0 0 0-2.443-2.164c-5.715-.2-11.439 0-17.154-.14-2.214 0-2.792.918-2.712 2.922a98.539 98.539 0 0 1 0 8.208c-.27 6.283-5.595 11.439-11.569 11.29-6.513-.17-10.781-4.768-10.791-11.669 0-16.163-.02-32.329-.06-48.499a63.968 63.968 0 0 1 7.42-4.159c4.169-1.675 8.517-2.922 12.796-4.358l35.085.05z" fill="#3D4959"/><path d="M137.13 108.896c9.275 5.256 18.5 10.571 27.824 15.738a27761.26 27761.26 0 0 0 72.704 40.081c18.6 10.223 37.23 20.375 55.849 30.608 7.171 3.989 14.282 7.978 21.422 11.967a18.998 18.998 0 0 0-.827 3.77c-.07 6.981 0 13.962 0 21.003l-59.061-32.432a103592.784 103592.784 0 0 1-118.41-65.184c-6.423-3.53-12.835-7.061-19.338-10.422-1.915-.997-2.762-2.124-2.653-4.318.19-3.591.09-7.201.11-10.811h22.38z" fill="#B47BFF"/><path d="M205.725 328.114a223.26 223.26 0 0 1 31.535-28.244c27.924-20.225 55.669-40.71 83.494-61.095.589-.438 1.127-.997 1.696-1.426l.997-.209a3777.63 3777.63 0 0 0 11.08 6.113l100.499 55.241c2.583 31.385-4.937 59.16-29.062 80.932a7.33 7.33 0 0 0-2.713 6.053 4994.77 4994.77 0 0 1 0 58.193c0 2.553.619 3.8 3.212 4.847 11.519 4.648 18.041 13.294 18.949 25.751.398 5.425.069 10.91.069 16.724h-52.488c.371-1.303.619-2.639.738-3.989.05-34.138 0-68.285.09-102.423 0-2.743-.997-3.341-3.501-3.271-5.086.139-10.192.199-15.268 0-2.992-.13-3.84.807-3.8 3.769.139 9.305 0 18.61-.06 27.925a7.595 7.595 0 0 0-2.324.658 45136.075 45136.075 0 0 0-45.657 31.914c-3.161-1.646-6.273-3.421-9.514-4.897-2.264-.997-5.694-.997-6.801-2.663-1.227-1.825-.409-4.986-.469-7.629-.15-6.443.259-12.965-.559-19.308-1.555-12.027-8.098-21.502-17.223-29.091a45.158 45.158 0 0 0-26.519-10.372c-2.892-.19-3.64.917-3.52 3.63.299 4.589.299 9.193 0 13.783-.319 3.54 1.426 4.458 4.248 4.986a26.287 26.287 0 0 1 21.941 26.489c0 12.057.13 24.115-.08 36.172-.059 3.471.718 4.887 4.458 4.638 4.698-.33 9.435-.11 14.162-.07 5.066 0 8.298 3.301 8.328 8.427v21.253c-8.976.049-17.902.139-26.848.139h-81.141a21.983 21.983 0 0 1-.309-2.583c0-30.338-.269-60.686.2-91.014.139-9.355 2.313-18.67 3.55-28.005a111.278 111.278 0 0 1 13.244-31.115c2.035-3.252 3.59-6.822 5.366-10.233z" fill="#475567"/><path d="M291.672 490.944v-21.252c0-5.126-3.261-8.387-8.327-8.427-4.727 0-9.465-.26-14.162.069-3.74.25-4.518-1.166-4.458-4.637.21-12.058.09-24.115.08-36.172a26.293 26.293 0 0 0-21.941-26.489c-2.822-.528-4.568-1.446-4.248-4.986.299-4.59.299-9.194 0-13.783-.12-2.713.628-3.82 3.52-3.63a45.146 45.146 0 0 1 26.518 10.332c9.126 7.589 15.668 17.064 17.224 29.091.818 6.353.409 12.865.558 19.308.06 2.603-.757 5.804.469 7.629 1.107 1.656 4.538 1.626 6.802 2.663 3.241 1.476 6.353 3.251 9.514 4.897 8.168 7.639 11.25 17.144 10.691 28.154-.289 5.655-.05 11.339-.05 17.194l-22.19.039z" fill="#3D4959"/><path d="M435.026 298.494l-100.499-55.261-11.08-6.103a50.7 50.7 0 0 1 5.226-4.079c3.041-1.805 4.517-4.059 4.069-7.779-.349-2.773.05-5.635.119-8.467l95.981 52.727c2.065 1.137 4.169 2.204 6.253 3.311-.046 8.544-.069 17.094-.069 25.651z" fill="#FCDB34"/><path d="M351.202 412.985c0-9.305.199-18.61.059-27.925 0-2.992.848-3.899 3.8-3.77 5.077.22 10.183.16 15.269 0 2.463-.069 3.511.529 3.501 3.272-.08 34.137 0 68.285-.09 102.423a21.53 21.53 0 0 1-.738 3.989h-21.801v-77.989z" fill="#222942"/><path d="M205.724 328.114c-1.775 3.431-3.331 6.981-5.355 10.282a111.297 111.297 0 0 0-13.244 31.116c-21.941 5.037-40.092-6.732-47.632-19.577a42.2 42.2 0 0 1-6.093-21.203c-.07-6.702 0-13.393 0-20.385h22.379c0 6.184-.06 12.477 0 18.77.13 11.519 7.5 19.746 18.949 21.063 6.493.748 11.908-1.686 16.525-6.114 4.837-4.667 9.644-9.324 14.471-13.952z" fill="#3E4A5A"/><path d="M332.861 216.805c-.069 2.832-.468 5.694-.119 8.467.449 3.72-.998 5.984-4.069 7.779a50.7 50.7 0 0 0-5.226 4.079l-.997.199-8.388-5.256c0-6.981-.05-13.962 0-21.003a18.93 18.93 0 0 1 .828-3.77c5.904 3.059 11.805 6.13 17.702 9.215a.285.285 0 0 1 .252.182.264.264 0 0 1 .017.108z" fill="#BB9AFD"/><path d="M332.841 177.521c0-11.469-1.495-23.038 2.135-34.258 3.5-10.801 9.684-19.657 19.338-25.93 0 16.163.019 32.33.059 48.499 0 6.902 4.279 11.499 10.791 11.669 5.984.149 11.3-4.987 11.569-11.29.12-2.732.11-5.475 0-8.208-.08-1.994.499-2.991 2.713-2.922 5.714.11 11.439-.06 17.153.14a3.349 3.349 0 0 1 2.444 2.164c.608 10.97-.748 21.273-7.919 30.518-10.681 13.783-34.706 16.156-47.272 4.129-4.079-3.91-7.809-7.979-9.714-13.454-.16-.389-.848-.658-1.297-1.057z" fill="#222842"/></g><defs><clipPath id="a"><path fill="#fff" d="M0 0h600v600H0z"/></clipPath></defs></svg>