<svg xmlns="http://www.w3.org/2000/svg" id="Capa_1" enable-background="new 0 0 512 512" height="30" viewBox="0 0 512 512" width="30"><g><g><g><g><g><g><g><path d="m126.504 476.879c-75.693-44.472-126.504-126.742-126.504-220.879 0-141.385 114.615-256 256-256 63.061 0 120.796 22.801 165.412 60.609l55.785 66.436c22.125 37.869 34.803 81.932 34.803 128.955 0 94.137-50.811 176.407-126.504 220.88z" fill="#fe6a16"/></g></g></g></g></g></g><path d="m385.496 476.88c75.693-44.473 126.504-126.743 126.504-220.88 0-47.023-12.679-91.085-34.803-128.955l-174.442-31.635-58.081-28.916-100.646 62.087 143.173 143.173v227.986z" fill="#ea3e03"/><g><path d="m382.183 444.048-16.196-160.488c-3.571-35.387-33.36-62.321-68.927-62.321h-82.12c-35.567 0-65.356 26.934-68.927 62.321l-16.196 160.488 34.548 23.276c55.39 37.318 127.879 37.318 183.269 0z" fill="#fff"/></g><g><path d="m382.183 444.048-16.196-160.488c-3.571-35.387-33.36-62.321-68.927-62.321h-40.94v274.072c31.93-.023 63.854-9.351 91.514-27.986z" fill="#e9edf5"/></g><g><path d="m268.407 392.065h-24.815c-18.97 0-34.348-15.378-34.348-34.348v-22.498c0-25.822 20.933-46.755 46.755-46.755 25.822 0 46.755 20.933 46.755 46.755v22.498c.001 18.969-15.377 34.348-34.347 34.348z" fill="#dce1eb"/></g><g><path d="m256.12 288.466v103.599h12.287c18.97 0 34.348-15.378 34.348-34.348v-22.498c0-25.783-20.868-46.688-46.635-46.753z" fill="#bec3d2"/></g><g><path d="m268.407 392.064c8.306 0 15.924-2.948 21.863-7.856-8.538-9.196-20.732-14.95-34.27-14.95-13.538 0-25.732 5.754-34.27 14.95 5.94 4.907 13.557 7.856 21.863 7.856z" fill="#bec3d2"/></g><g><path d="m290.27 384.209c-8.513-9.168-20.66-14.913-34.15-14.947v22.802h12.287c8.307 0 15.924-2.948 21.863-7.855z" fill="#9196aa"/></g><g><path d="m270.424 301.779h-28.849c-11.891 0-20.001 12.038-15.533 23.058l1.223 3.017c2.728 6.729 7.646 12.12 13.734 15.487v28.378h30v-28.378c6.088-3.367 11.006-8.758 13.734-15.487l1.223-3.017c4.469-11.02-3.64-23.058-15.532-23.058z" fill="#707789"/></g><g><path d="m270.424 301.779h-14.304v69.94h14.88v-28.377c6.088-3.367 11.006-8.758 13.734-15.487l1.223-3.017c4.468-11.021-3.641-23.059-15.533-23.059z" fill="#555a66"/></g><g><g><path d="m204.525 301.403c-6.837 0-12.38-5.543-12.38-12.38v-7.819c0-6.837 5.543-12.38 12.38-12.38 6.837 0 12.38 5.543 12.38 12.38v7.819c0 6.837-5.543 12.38-12.38 12.38z" fill="#707789"/></g><g><path d="m307.475 301.403c-6.837 0-12.38-5.543-12.38-12.38v-7.819c0-6.837 5.543-12.38 12.38-12.38 6.837 0 12.38 5.543 12.38 12.38v7.819c0 6.837-5.543 12.38-12.38 12.38z" fill="#555a66"/></g></g><g><path d="m139.142 164.146 80.057 65.913-74.44 65.927z" fill="#fff"/></g><g><path d="m165.775 195.133-26.633-30.988s-24.827 56.405 5.617 131.84l19.741-21.543c20.448-22.298 20.995-56.364 1.275-79.309z" fill="#dce1eb"/></g><g><path d="m372.858 164.146-80.057 65.913 74.44 65.927z" fill="#e9edf5"/></g><g><path d="m346.225 195.133 26.633-30.988s24.827 56.405-5.617 131.84l-19.741-21.542c-20.448-22.299-20.995-56.365-1.275-79.31z" fill="#bec3d2"/></g><g><path d="m256 512c47.248 0 91.506-12.8 129.496-35.121l-3.313-32.832c-81.07 31.997-171.296 31.997-252.366 0l-3.313 32.832c37.99 22.321 82.248 35.121 129.496 35.121z" fill="#7584f2"/></g><g><path d="m382.183 444.048c-40.497 15.983-83.279 23.981-126.062 23.996v43.955c47.202-.022 91.418-12.818 129.376-35.12z" fill="#606aea"/></g><g><path d="m421.399 60.599c-20.108 9.224-45.308 21.005-45.308 21.005l-97.463-36.799c-17.196-6.432-36.453-4.024-51.536 6.444l-91.034 64.947 5.549 9.201c6.379 10.249 19.941 13.243 30.042 6.633l75.018-46.889 52.908 29.329-58.704 15.765c-7.659 3.818-11.542 12.526-9.265 20.777 2.386 8.646 10.804 14.189 19.687 12.963l75.161-2.147c10.078-.288 20.091-1.732 29.84-4.303l120.903-30.481c-14.73-25.211-33.647-47.677-55.798-66.445z" fill="#ffdecf"/></g><g><path d="m421.399 60.599c-20.108 9.224-45.308 21.005-45.308 21.005l-97.463-36.799c-7.291-2.727-14.951-3.848-22.508-3.456v49.033l43.454 24.089-43.454 11.669v37.698l70.333-2.009c10.078-.288 20.091-1.732 29.84-4.303l120.903-30.481c-14.729-25.212-33.646-47.678-55.797-66.446z" fill="#ffbeaa"/></g></g></svg>