<svg xmlns="http://www.w3.org/2000/svg" id="Icon_Set" enable-background="new 0 0 256 256" height="70" viewBox="0 0 256 256" width="70"><path d="m89.667 124.855v13.26l-.15 24.43c-.02 4.56-3.73 8.23-8.28 8.23h-.28c-21.39 0-34.76 17.3-34.89 38.76-.12 21.53 17.23 39.08 38.76 39.21l8.27.05h1.19c12.01.07 21.8-9.6 21.87-21.61l.33-56.23.07-12.36.48-33.74zm3.63 96.69c-.01 2.41-1.97 4.34-4.37 4.33l-3.97-.03c-8.78-.05-15.9-7.16-15.99-15.91-.1-9 7.61-16.32 16.61-16.27l3.53.03c2.41.01 4.34 1.97 4.33 4.37z" fill="#44c7b6"/><path d="m111.557 7.185c-.52 0-1.02.08-1.49.23-.47.14-.91.36-1.31.63-1.32.9-2.2 2.42-2.2 4.15v48.55 4.97c0 6.65-1.1 13.24-3.26 19.52l-13.63 39.62h22.19l9.81-20.79 13.36-41.76v-22.8-32.32z" fill="#796e84"/><path d="m154.307 124.856h-21.533l-19.144-35.854c-4.643-8.696-7.072-18.402-7.072-28.261v-48.549c0-2.761 2.239-5 5-5h23.44c-10.576 0-18.776 10.163-15.367 21.256 2.046 6.658 8.402 11.053 15.367 11.053h.03v24.896c0 7.505 1.408 14.944 4.151 21.93z" fill="#a4a4a5"/><path d="m156.446 18.867s22.814-14.16 47.235-11.294l-26.899 19.382z" fill="#a4a4a5"/><path d="m184.768 61.748s20.441 17.41 25.158 41.542l-26.66-19.709z" fill="#a4a4a5"/><path d="m62.467 91.834s-9.481-25.121-1.948-48.527l13.815 30.139z" fill="#a4a4a5"/><path d="m154.307 124.855h-21.53l-19.15-35.85c-4.64-8.7-7.07-18.41-7.07-28.26v-48.55c0-2.77 2.24-5 5-5h23.44c-5.61 0-10.55 2.86-13.44 7.2-2.57 3.84-3.53 8.84-1.93 14.05.45 1.46 1.11 2.8 1.93 4.02 2.93 4.35 7.99 7.04 13.44 7.04h.03v24.89c0 7.51 1.41 14.95 4.15 21.93z" fill="#a4a4a5"/><path d="m154.307 124.855h-6.53l-19.15-35.85c-4.64-8.7-7.07-18.41-7.07-28.26v-28.28c2.93 4.35 7.99 7.04 13.44 7.04h.03v24.89c0 7.51 1.41 14.95 4.15 21.93z" fill="#87828e"/><path d="m89.667 124.855v13.26l-.15 24.43c-.02 4.56-3.73 8.23-8.28 8.23h-.28c-21.39 0-34.76 17.3-34.89 38.76-.12 21.53 17.23 39.08 38.76 39.21l8.27.05h1.19c.94.01 1.86-.05 2.77-.16-20.23-1.55-36.1-18.5-35.99-39.1.13-21.46 13.5-38.76 34.89-38.76h.28c4.55 0 8.26-3.67 8.28-8.23l.15-24.43v-13.26z" fill="#4bdbc3"/><path d="m102.037 124.855-.48 33.74-.07 12.36-.33 56.23c-.06 11.07-8.39 20.15-19.1 21.45.91.07 1.84.1 2.77.11l8.27.05h1.19c12.01.07 21.8-9.6 21.87-21.61l.33-56.23.07-12.36.48-33.74z" fill="#3bb2a0"/><path d="m127.288 124.855.48 33.74.07 12.36.33 56.23c.07 12.01 9.86 21.68 21.87 21.61h1.19l8.27-.05c21.53-.13 38.88-17.68 38.76-39.21-.13-21.46-13.5-38.76-34.89-38.76h-.28c-4.55 0-8.26-3.67-8.28-8.23l-.15-24.43v-13.26zm23.6 73.21c-.01-2.4 1.92-4.36 4.33-4.37l3.53-.03c9-.05 16.71 7.27 16.61 16.27-.09 8.75-7.21 15.86-15.99 15.91l-3.97.03c-2.4.01-4.36-1.92-4.37-4.33z" fill="#44c7b6"/><path d="m139.658 124.855v13.26l.15 24.43c.02 4.56 3.73 8.23 8.28 8.23h.28c21.39 0 34.76 17.3 34.89 38.76.11 20.6-15.76 37.55-35.99 39.1.91.11 1.83.17 2.77.16h1.19l8.27-.05c21.53-.13 38.88-17.68 38.76-39.21-.13-21.46-13.5-38.76-34.89-38.76h-.28c-4.55 0-8.26-3.67-8.28-8.23l-.15-24.43v-13.26z" fill="#3bb2a0"/><path d="m127.288 124.855.48 33.74.07 12.36.33 56.23c.07 12.01 9.86 21.68 21.87 21.61h1.19l8.27-.05c.93-.01 1.86-.04 2.77-.11-10.71-1.3-19.04-10.38-19.1-21.45l-.33-56.23-.07-12.36-.48-33.74z" fill="#4bdbc3"/><g fill="#5f266d"><path d="m85.599 189.668c-11.015-.06-20.758 8.868-20.634 20.312.119 10.891 9.079 19.804 19.974 19.868l3.96.023h.051c4.585 0 8.321-3.697 8.348-8.3l.137-23.482c.014-2.23-.843-4.333-2.41-5.919-2.818-2.853-5.726-2.481-9.426-2.502zm3.698 31.855c0 .001 0 .001 0 0 0 .188-.152.347-.35.347-.001 0-.001 0-.002 0l-3.96-.023c-6.557-.038-11.949-5.401-12.021-11.955-.133-12.165 15.321-13.163 16.368-12.101.159.16-.034 23.508-.035 23.732z"/><path d="m162.999 166.769c-.082 0-.165 0-.248 0-2.318.029-4.284-1.893-4.298-4.248-.171-29.25-.143-20.962-.143-37.668 0-.017-.005-.032-.005-.049-.012-1 .327.122-15.404-39.94-2.571-6.547-3.875-13.434-3.875-20.468v-2.083c0-.003.001-.006.001-.01v-55.12c0-2.209-1.791-4-4-4-28.23 0-22.722-.01-23.729.02-4.959.14-8.741 4.236-8.741 8.987v.004c0 58.552.895 60.294-3.042 71.738-14.068 40.893-13.853 39.913-13.853 40.922 0 16.666.029 8.345-.143 37.669-.007 1.141-.457 2.211-1.269 3.013-.806.796-1.871 1.234-3.003 1.234-.009 0-.017 0-.025 0-11.341-.041-21.521 4.422-28.64 12.639-6.712 7.75-10.446 18.438-10.514 30.097-.067 11.482 4.341 22.303 12.413 30.47 8.071 8.167 18.84 12.701 30.322 12.768l9.459.055h.155c6.818 0 13.239-2.637 18.094-7.435 4.892-4.834 7.607-11.284 7.647-18.161l.4-68.551.473-33.742c.015-1.071-.4-2.103-1.151-2.865-.497-.504-1.12-.845-1.791-1.031l3.799-8.051 4.256 7.97c-.774.157-1.491.541-2.053 1.111-.752.762-1.167 1.794-1.152 2.864l.472 33.709.401 68.583c.04 6.877 2.756 13.327 7.647 18.162 4.854 4.798 11.274 7.435 18.094 7.435h.155c10.129-.059 25.685 1.44 39.781-12.823 18.129-18.34 14.374-46.162 1.898-60.566-7.062-8.156-17.136-12.639-28.388-12.639zm-31.971-154.912v22.989c-11.04-3.714-10.744-19.304 0-22.989zm-18.467 146.715-.4 68.583c-.027 4.74-1.899 9.186-5.271 12.519-3.346 3.307-7.771 5.125-12.472 5.125-.035 0-.071 0-.106 0l-9.459-.055c-9.346-.054-18.11-3.745-24.68-10.392-6.569-6.647-10.157-15.454-10.103-24.799.057-9.752 3.097-18.598 8.561-24.906 5.6-6.465 13.319-9.877 22.337-9.877h.282c3.251 0 6.312-1.257 8.625-3.544 2.332-2.305 3.627-5.379 3.646-8.657.171-29.285.143-22.052.143-33.715h19.314zm-3.238-37.719h-14.049c13.607-39.556 11.615-33.73 12.197-35.538 1.546 3.723 2.105 4.584 9.724 18.854zm1.234-60.115c0-.374.004-48.568.004-48.568.01-.51.431-.981.996-.981h7.363c-.046.062-.092.123-.138.185-3.853 5.214-4.938 11.865-2.977 18.247 2.123 6.911 8.095 12.059 15.221 13.483v21.292c0 8.039 1.49 15.91 4.428 23.392l12.984 33.066h-13.267c-18.805-35.222-24.614-42.542-24.614-60.116zm73.245 173.613c-11.543 11.677-24.001 10.388-34.139 10.447-.036 0-.071 0-.106 0-4.7 0-9.127-1.818-12.473-5.125-3.371-3.332-5.243-7.778-5.271-12.518l-.401-68.616-.415-29.686h1.776 17.537c0 11.685-.028 4.44.143 33.716.04 6.742 5.539 12.2 12.272 12.2h.282c9.016 0 16.735 3.413 22.335 9.877 9.974 11.514 13.411 34.577-1.54 49.705z"/><path d="m158.491 189.667c-.038 0-.077 0-.116 0l-3.534.021c-4.604.027-8.327 3.794-8.301 8.398l.138 23.483c.026 4.594 3.753 8.3 8.347 8.3h.051l3.961-.023c17.432-.102 26.787-21.328 14.128-34.052-3.88-3.897-9.222-6.127-14.674-6.127zm.498 32.18-3.961.023c-.191.022-.351-.162-.351-.347l-.138-23.483c-.001-.193.155-.351.348-.352 3.436-.02 8.25-.628 12.605 3.75 7.641 7.68 1.93 20.349-8.503 20.409z"/><circle cx="121.232" cy="76.296" r="4.875"/><path d="m154.968 22.582c21.712 8.635 21.781 9.326 24.152 7.616l26.898-19.381c2.953-2.127 1.746-6.793-1.872-7.218-25.513-2.993-48.83 11.26-49.81 11.868-2.786 1.729-2.412 5.904.632 7.115zm36.477-11.124-15.222 10.967-10.098-4.016c6.06-2.705 15.196-6.003 25.32-6.951z"/><path d="m213.852 102.52c-4.929-25.213-25.612-43.072-26.49-43.819-2.498-2.127-6.359-.499-6.584 2.771l-1.502 21.833c-.094 1.363.514 2.679 1.612 3.491l26.66 19.708c2.916 2.155 7.004-.402 6.304-3.984zm-26.445-20.854.746-10.841c4.425 4.946 10.35 12.641 14.341 21.994z"/><path d="m65.828 94.001 11.866-18.389c.74-1.148.844-2.594.274-3.835l-13.813-30.139c-1.508-3.291-6.322-3.04-7.443.441-7.871 24.456 1.606 50.086 2.014 51.166 1.162 3.082 5.328 3.504 7.102.756zm-3.862-37.939 7.817 17.055-5.893 9.131c-1.481-6.469-2.95-16.069-1.924-26.186z"/></g></svg>