<svg xmlns="http://www.w3.org/2000/svg" id="Capa_1" enable-background="new 0 0 512 512" height="30" viewBox="0 0 512 512" width="30"><g><g><g><g><g><g><g><ellipse cx="256" cy="256" fill="#fe6a16" rx="256" ry="256" transform="matrix(.707 -.707 .707 .707 -106.039 256)"/></g></g></g></g></g></g><path d="m512 256c0-11.129-.71-22.091-2.088-32.846l-109.744-109.744-82.424 83.755-103.075-103.075-17.039 37.51-37.51-37.51-16.717 45.461 38.534 37.722-11.382 13.668-46.951-50.599-19.77 42.571 40.053 40.052-19.467 23.377 79.327 79.327-114.4 82.875 92.572 92.572c23.449 7.079 48.321 10.884 74.081 10.884 141.385 0 256-114.615 256-256z" fill="#ea3e03"/><g><g><path d="m234.675 234.518c0 31.206-25.297 0-56.503 0s-56.503 31.206-56.503 0 13.937-78.375 56.503-78.375c45.652.001 56.503 47.17 56.503 78.375z" fill="#ffce00"/></g><g><path d="m178.41 156.147v78.375c31.096.157 56.266 31.123 56.266-.004-.001-31.151-10.816-78.206-56.266-78.371z" fill="#fdba12"/></g><g><g><ellipse cx="205.447" cy="116.045" fill="#fdba12" rx="16.834" ry="26.246"/></g><g><ellipse cx="150.898" cy="116.045" fill="#ffce00" rx="16.834" ry="26.246"/></g></g><g><g><ellipse cx="242.274" cy="161.976" fill="#fdba12" rx="16.834" ry="26.246"/></g><g><ellipse cx="114.071" cy="161.976" fill="#ffce00" rx="16.834" ry="26.246"/></g></g></g><g><g><path d="m329.174 107.739h42.983v122.708h-42.983z" fill="#e9edf5" transform="matrix(.707 .707 -.707 .707 222.274 -198.432)"/></g><g><path d="m297.323 166.942h122.708v20.324h-122.708z" fill="#cdd2e1" transform="matrix(.707 -.707 .707 .707 -20.177 305.496)"/></g><g><path d="m134.575 407.052-45.23 1.493 101.549-101.548 21.868 21.868z" fill="#e9edf5"/></g><g><path d="m113.668 407.742 20.907-.69 78.187-78.187-10.108-10.109z" fill="#cdd2e1"/></g><g><path d="m246.434 185.538h102.858v72.715h-102.858z" fill="#fff" transform="matrix(.707 .707 -.707 .707 244.146 -145.629)"/></g><g><path d="m280.101 215.36h72.715v50.261h-72.715z" fill="#e9edf5" transform="matrix(.707 -.707 .707 .707 -77.364 294.209)"/></g><g><path d="m158.886 320.994h46.725v33.032h-46.725z" fill="#fff" transform="matrix(.707 .707 -.707 .707 292.035 -30.015)"/></g><g><path d="m174.405 335.085h33.032v22.195h-33.032z" fill="#e9edf5" transform="matrix(.707 -.707 .707 .707 -188.869 236.396)"/></g><g><path d="m185.215 217.146h102.858v131.937h-102.858z" fill="#bfe1ff" transform="matrix(.707 .707 -.707 .707 269.504 -84.41)"/></g><g><path d="m189.271 276.58h131.937v50.261h-131.937z" fill="#87c7ff" transform="matrix(.707 -.707 .707 .707 -138.583 268.85)"/></g><g><path d="m349.34 111.88h85.523v31.555h-85.523z" fill="#fff" transform="matrix(.707 .707 -.707 .707 205.111 -239.868)"/></g><g><path d="m391.856 122.391h31.555v41.594h-31.555z" fill="#e9edf5" transform="matrix(.707 -.707 .707 .707 18.144 330.179)"/></g></g></g></svg>